PathFileType	4	(X/Y/Z)	54_1_52_p1_0-975_filt_butterworth.trc
DataRate	CameraRate	NumFrames	NumMarkers	Units	OrigDataRate	OrigDataStartFrame	OrigNumFrames
44.0	44.0	6	27	m	44.0	609	975
Frame#	Time	RHip			RKnee			RAnkle			RBigToe			RSmallToe			RHeel			LHip			LKnee			LAnkle			LBigToe			LSmallToe			LHeel			Neck			Head			Nose			RShoulder			RElbow			RWrist			RThumb			RIndex			RPinky			LShoulder			LElbow			LWrist			LThumb			LIndex			LPinky			
		X1	Y1	Z1	X2	Y2	Z2	X3	Y3	Z3	X4	Y4	Z4	X5	Y5	Z5	X6	Y6	Z6	X7	Y7	Z7	X8	Y8	Z8	X9	Y9	Z9	X10	Y10	Z10	X11	Y11	Z11	X12	Y12	Z12	X13	Y13	Z13	X14	Y14	Z14	X15	Y15	Z15	X16	Y16	Z16	X17	Y17	Z17	X18	Y18	Z18	X19	Y19	Z19	X20	Y20	Z20	X21	Y21	Z21	X22	Y22	Z22	X23	Y23	Z23	X24	Y24	Z24	X25	Y25	Z25	X26	Y26	Z26	X27	Y27	Z27	
609	13.840909090909092	0.2742765931813773	0.45014303757845614	0.9520285440703451	0.25027613726880127	0.4614294463832735	1.4423908154157712	0.27627838247191483	0.5403328788027338	1.9158784821333574	0.21842153969066164	0.36165877695996257	1.9471087445496815	0.28222283342001864	0.3884741415479186	1.9601959925553891	0.2631754526327259	0.6413503847109782	2.0055794741712534	0.05585499196114035	0.5107962262713079	0.9633616056562394	0.07554408438838961	0.517233678257077	1.4622932064559349	0.06186598754659577	0.5636668953899795	1.8852078204969875	0.0632599508765303	0.377436163681442	1.9509617299894895	0.013923558629379298	0.42772626570817385	1.9643497755740402	0.08576136444158222	0.6142943853845604	1.9393991702339084	0.18113082395619517	0.4039326260386052	0.4382549320213023	0.2031473265500386	0.2502218856804409	0.19081105637302062	0.21003156656551564	0.20589201617826722	0.33691815475657483	0.3498676288413706	0.400751579171884	0.5065483251145461	0.37754923514589567	0.386582628119285	0.7715346831030188	0.3592916571320603	0.33412027351470197	1.0412050269222695	0.28330108989212915	0.32676130900404987	1.1655677087912397	0.29456935311814475	0.3273022013354381	1.1845729036682784	0.3209767197108661	0.37983474073015855	1.194174897928936	0.0249212220871187	0.47264204206457877	0.5056267714450714	-0.017307267552024514	0.4617056916623499	0.7556111709688567	-0.06688478026304087	0.44179517566729865	1.0322039089374055	-0.028171239360540924	0.37292809576514013	1.1260378153318864	-0.04938383239288713	0.36130371790301863	1.1519827775647635	-0.08266091995066692	0.4393912482439284	1.172681612680491
610	13.863636363636363	0.27724796543285046	0.4510942227796687	0.9543158121396246	0.24899979718440043	0.46013227612877416	1.4417707438481506	0.27823523959337537	0.5456221562888216	1.9157662446665054	0.21854904648529871	0.36203211697694293	1.947473097993673	0.28206226662658224	0.3885309986583663	1.960245859780481	0.26324688967481513	0.6414277346828077	2.0056286721913965	0.058170600273684155	0.5078224129012431	0.9651968098393594	0.07537584064619546	0.5173947729883448	1.4625070252156713	0.06186510866487958	0.5635775086747978	1.885135324838914	0.06317578365657149	0.3771291224322477	1.9508914163994437	0.013868104106897044	0.42773781514741094	1.963984672794569	0.08752741988873482	0.6157314253263149	1.9389157918740707	0.1811214485810755	0.40391441805938566	0.43841282276825466	0.20674649265278394	0.2525480817817852	0.19199902153355103	0.2089320928853714	0.2206641165942519	0.34051636605997654	0.3498916472505738	0.40067550418928083	0.5064833613508535	0.37763382606699136	0.3868125814984119	0.7715912380133908	0.3663786583123487	0.33886767968482684	1.0429037184586625	0.28756635626158095	0.32750018729260005	1.1651354944339243	0.30082497627140964	0.32325938745955396	1.186047785362051	0.32925850638078036	0.38788581597253985	1.1958043434248014	0.024937856986031237	0.4726297219953507	0.5056557469007981	-0.01920004511076782	0.46707853423069523	0.757051960394808	-0.06870925022952586	0.44066153222338444	1.0296915011347079	-0.030616869464530252	0.3741415142888323	1.125833910155817	-0.05360215278155823	0.36461693108202964	1.1530588777585289	-0.08825742320578371	0.4335312050181712	1.1678264284670994
611	13.886363636363637	0.2799101480649141	0.45138154604034697	0.9546153497702886	0.24726480008277635	0.45881339392851833	1.4413952255903466	0.2797820689307664	0.5493841757155158	1.9159300103248407	0.21839262450071628	0.36163248997952663	1.9472688618607412	0.2818797740125361	0.38851822687339943	1.9602581809517392	0.2633334309351316	0.6415429888696981	2.0058164993638425	0.0596266591351611	0.5021716870040653	0.9640597060979409	0.07400398589272669	0.5170609701525171	1.462478997497723	0.0618693230832705	0.5634442406243844	1.8850466231063179	0.0634785875859503	0.3767493455014098	1.9494325807966708	0.013799500262304663	0.4277441009113831	1.9632032518695504	0.08863807900538839	0.6157572280050607	1.938776638380765	0.18111676286615314	0.40388771749287	0.43858888552289393	0.20797771424559314	0.2552455040500278	0.1927976735851153	0.20841911655692658	0.23364678992410876	0.3452045948233047	0.3499277122482839	0.4005781189076202	0.5064100063615187	0.3775428175763897	0.38701357556883953	0.7716355999239757	0.3708433263748004	0.34264904291415	1.0440285958612623	0.28957504718742166	0.3279565404372868	1.167615794205099	0.3054365123204912	0.31226517284740035	1.1846374554802626	0.34048453755653646	0.3792098976755859	1.1957861243930394	0.024945863802320445	0.47264066873934546	0.5056742398941771	-0.0207677890855116	0.47117194986141336	0.7580288119447285	-0.07135701381310414	0.4426390654780224	1.0305939829025037	-0.032424397435976096	0.37463243548887365	1.125144757853808	-0.05929801621345799	0.3718049278356025	1.1558673577902527	-0.0941457438893248	0.43037051226057166	1.1656800330903323
612	13.909090909090908	0.2824241429550529	0.4506228508922572	0.9546771502241183	0.24662301967736064	0.4589659417973578	1.44117125081361	0.2798957126261905	0.5494625290723496	1.915886380923353	0.21835267890078464	0.3615113652272369	1.9471751754110223	0.28185803439993684	0.38857195364877034	1.960262100890386	0.26324319897971316	0.6418714318590412	2.0048371173880937	0.05987165610467071	0.5019764261145895	0.9648395816833498	0.07192409575428575	0.5163987238497286	1.4622784075501727	0.06188304550166917	0.563364417336214	1.8850108448551053	0.06389999083363757	0.3767395380381142	1.9490405626235012	0.013806406978018434	0.42785763486743916	1.9628588510709468	0.0887416257626862	0.6153841115999196	1.9387629282011385	0.1811025812840993	0.4038252016674318	0.43864833313939267	0.20757639939903444	0.25867972758989966	0.19301081063046946	0.20827765236119694	0.24064249297919865	0.34836871480845233	0.3499611240673146	0.40051805733076473	0.5063783336028805	0.37733817812557424	0.387078026597544	0.7717557936813497	0.373887949497171	0.3453369877311902	1.0442099189578	0.29115269004012095	0.32841390974739826	1.1717616718897454	0.3086996374324351	0.30004532396704064	1.1812377363945255	0.35357465502887064	0.36198009218723853	1.1932454088316444	0.024934514745684953	0.47268353272310437	0.5056803989968239	-0.022311449336787872	0.4752716373175495	0.7579661605216681	-0.07387188259213842	0.44810586999230717	1.0349076527987904	-0.033167369370700715	0.3751329239586585	1.1256998182573992	-0.06251428508009257	0.3763066172200432	1.1581187887592057	-0.09793815568768365	0.4293077588248617	1.1681204978734265
613	13.931818181818182	0.2843605249637978	0.44976206332773416	0.9569707226237705	0.2476542253573363	0.46206492267249233	1.4413189685320709	0.2785086646354655	0.5457879686140148	1.915347197575063	0.21838632707199154	0.3615698032941622	1.947145570180048	0.28192229500626453	0.38865726085527974	1.9602614399988048	0.2630599750779974	0.6425082192343551	2.003213646781214	0.05960080172506631	0.5098412723819793	0.9705628964886608	0.07066852253394915	0.5159971165431549	1.4621504175834386	0.06190212890924456	0.5634068436343523	1.8850472658303619	0.06410973333224303	0.37699891035954375	1.9493497418123953	0.01393411504192456	0.4283862597529137	1.9632995851603603	0.08853680885932627	0.6152243884099383	1.9387241146340166	0.18108240023970967	0.403793670670334	0.43859926510462266	0.20772471807562864	0.2614039517151539	0.19297041066081697	0.20916620773796515	0.24235915484745246	0.34758728996813365	0.34997299695777295	0.40055088914482656	0.5064052694107172	0.3772006410720939	0.3871201576505465	0.771969621086517	0.3768664372106242	0.3491390292395075	1.044297975729417	0.29346276406404515	0.32810251963550907	1.174375384529227	0.3110704666245072	0.2908220035458561	1.1778232625531286	0.36483735239070164	0.3513381181001507	1.18998989101675	0.0249154806817853	0.4727239858727509	0.5056718209325384	-0.02420346387481509	0.4806965862275081	0.7576139915953266	-0.07517270923626956	0.45231327265124377	1.038413179486332	-0.03311922922675457	0.3751149372546128	1.1280346370969008	-0.06265154671599368	0.37562757380504397	1.1577741279237934	-0.0989842781832854	0.429041534112703	1.1715651933983775
614	13.954545454545457	0.28494491627676316	0.4493473688393915	0.9612399665578826	0.24926439379602827	0.46694758776617407	1.4427939544056656	0.2764035534297914	0.5403412464223252	1.9145106750560033	0.21840064877337248	0.3616093661124927	1.947104842583925	0.2819383141158056	0.3886963515023718	1.960217522798439	0.26289919940023965	0.6428795334882204	2.0021638529213064	0.05864945431738196	0.5130853632392993	0.9755716966815674	0.07057893854994703	0.5159886662127781	1.4621752638352432	0.06190219487962878	0.5635127689862462	1.8851088806857457	0.06424149734633218	0.3771215147855324	1.9493796372638152	0.014019200486799657	0.42920914376140373	1.962995973195074	0.08844597330113957	0.6151880219819058	1.938661165413538	0.18108115450363652	0.4038896678650634	0.4385053648609229	0.20839822717964734	0.2646690906190631	0.19299577248819796	0.21177509936275732	0.2421581963724652	0.3433647179439089	0.3499700378181678	0.4006982510069427	0.5064584454553657	0.3772132620886811	0.3872051425136591	0.7721597519406008	0.37962183215735984	0.3540896926990398	1.0444922134683927	0.29643909704164606	0.3251860007278551	1.1736208423528922	0.3142693768327198	0.2832445650921924	1.173923282643161	0.372030929442468	0.34842664794123523	1.1871665181694961	0.024906502085776532	0.4726991556800726	0.5056543853896782	-0.025487745264790133	0.48446971611874556	0.7584598163798135	-0.0755009721120562	0.45336156471719136	1.038430513725284	-0.033294810911915544	0.37244140288651395	1.1295901207476065	-0.06327480639697432	0.37535915482113014	1.156442097998092	-0.09889179780955817	0.4285435989055453	1.172832995834876
